<?xml version="1.0" encoding="windows-1252"?>
<!-- Generator: Adobe Illustrator 20.0.0, SVG Export Plug-In . SVG Version: 6.00 Build 0)  -->
<svg version="1.1" id="Layer_1" xmlns="http://www.w3.org/2000/svg" xmlns:xlink="http://www.w3.org/1999/xlink" x="0px" y="0px" viewBox="0 0 40 40" style="enable-background:new 0 0 40 40;" xml:space="preserve">
<g>
	<path style="fill:#BAE0BD;" d="M18.107,38.227c-3.864-6.243-8.667-8.473-11.15-9.411c1.352-1.144,3.245-2.448,3.268-2.463   l0.574-0.394l-7.817-5.867l4.105-1.822l-2.26-5.452l6.196,1.285l0.271-4.019l6.13,7.098l2.421-12.772l4.939,3.19l5.825-5.524   l0.713,8.276l5.618,1.551l-9.079,9.669l8.733,1.975l-4.562,2.482l3.652,5.379l-6.527-0.565l0.332,4.627l-8.827-2.397l-0.108,0.521   C20.549,33.625,19.954,36.419,18.107,38.227z"/>
	<path style="fill:#5E9C76;" d="M30.202,3.154l0.594,6.895l0.06,0.693l0.671,0.185l4.485,1.238l-7.914,8.429L26.9,21.868   l1.705,0.386l6.586,1.489l-2.912,1.584l-0.969,0.527l0.62,0.913l2.751,4.053l-4.896-0.424l-1.168-0.101l0.084,1.169l0.24,3.34   l-7.634-2.073l-1.025-0.276l-0.217,1.039c-0.005,0.026-0.482,2.244-1.884,3.918c-3.5-5.37-7.659-7.665-10.249-8.746   c1.216-0.963,2.557-1.886,2.575-1.899l1.148-0.788l-1.114-0.836l-6.579-4.937l2.881-1.279l0.892-0.396l-0.373-0.901L5.651,13.5   l4.708,0.977l1.124,0.233l0.077-1.145l0.151-2.232l4.658,5.393l1.354,1.567l0.386-2.035l2.09-11.025l3.985,2.574l0.66,0.426   l0.57-0.541L30.202,3.154 M31.02,1l-6.294,5.968l-5.233-3.38l-2.367,12.486l-6.248-7.235l-0.314,4.66l-6.559-1.361l2.434,5.874   L2,19.981l7.942,5.96c0,0-2.607,1.79-3.942,3.058c2.149,0.763,7.709,2.738,11.99,10c2.359-1.902,3.055-5.304,3.055-5.304   l8.995,2.443l-0.341-4.746l6.99,0.605l-3.932-5.792L38,23.353l-9.175-2.075l9.048-9.636l-6.082-1.678L31.02,1L31.02,1z"/>
</g>
<path style="fill:none;stroke:#5E9C76;stroke-linecap:round;stroke-linejoin:round;stroke-miterlimit:10;" d="M1.5,38.5  c8.601,0,15.572-7.822,24.972-25.486"/>
</svg>